# MagicaVoxel @ Ephtracy

# material
mtllib box.mtl
usemtl palette

# normals
vn -1 0 0
vn 1 0 0
vn 0 0 1
vn 0 0 -1
vn 0 -1 0
vn 0 1 0

# texcoords
vt 0.822266 0.5
vt 0.919922 0.5
vt 0.958984 0.5

# verts
v -4 0 4
v -4 0 -4
v -4 0 -5
v -4 1 3
v -4 1 -4
v -4 8 4
v -4 8 3
v -4 8 -4
v -4 9 4
v -4 9 -5
v -3 1 3
v -3 1 -0
v -3 1 -1
v -3 1 -3
v -3 1 -4
v -3 2 -0
v -3 2 -1
v -3 3 -0
v -3 3 -1
v -3 4 1
v -3 4 -0
v -3 4 -1
v -3 5 2
v -3 5 1
v -3 5 -0
v -3 5 -2
v -3 5 -3
v -3 6 2
v -3 6 1
v -3 6 -2
v -3 6 -3
v -3 7 1
v -3 7 -2
v -3 8 3
v -3 8 -3
v -3 8 -4
v 4 1 4
v 4 1 3
v 4 1 -4
v 4 1 -5
v 4 7 3
v 4 8 4
v 4 8 3
v 4 8 -4
v 4 8 -5
v -3 1 4
v -3 1 3
v -3 1 -4
v -3 1 -5
v -3 8 4
v -3 8 3
v -3 8 -4
v -3 8 -5
v 4 1 3
v 4 1 -0
v 4 1 -1
v 4 1 -4
v 4 2 -0
v 4 2 -1
v 4 3 -0
v 4 3 -1
v 4 4 -0
v 4 4 -1
v 4 4 -2
v 4 5 2
v 4 5 1
v 4 5 -1
v 4 5 -2
v 4 5 -3
v 4 6 2
v 4 6 1
v 4 6 -2
v 4 6 -3
v 4 7 3
v 4 7 1
v 4 7 -2
v 4 7 -3
v 4 8 3
v 4 8 -3
v 4 8 -4
v 5 0 4
v 5 0 -5
v 5 1 3
v 5 1 -4
v 5 8 3
v 5 8 -4
v 5 9 4
v 5 9 -5
v -4 0 4
v -4 8 4
v -4 9 4
v -3 1 4
v -3 8 4
v 4 0 4
v 4 1 4
v 4 8 4
v 5 0 4
v 5 9 4
v -3 1 3
v -3 8 3
v -2 5 3
v -2 6 3
v -1 5 3
v -1 6 3
v -1 7 3
v 0 1 3
v 0 2 3
v 0 3 3
v 0 4 3
v 1 1 3
v 1 2 3
v 1 3 3
v 1 4 3
v 1 5 3
v 2 4 3
v 2 5 3
v 2 6 3
v 2 7 3
v 3 1 3
v 3 5 3
v 3 6 3
v 3 7 3
v 4 1 3
v 4 7 3
v 4 8 3
v -4 1 -4
v -4 8 -4
v -3 1 -4
v -3 8 -4
v 4 1 -4
v 4 8 -4
v 5 1 -4
v 5 8 -4
v -4 1 3
v -4 8 3
v -3 1 3
v -3 8 3
v 4 1 3
v 4 7 3
v 4 8 3
v 5 1 3
v 5 8 3
v -3 1 -4
v -3 8 -4
v -2 5 -4
v -2 6 -4
v -1 4 -4
v -1 5 -4
v -1 6 -4
v -1 7 -4
v 0 1 -4
v 0 2 -4
v 0 3 -4
v 0 4 -4
v 0 5 -4
v 1 1 -4
v 1 2 -4
v 1 3 -4
v 1 4 -4
v 2 5 -4
v 2 6 -4
v 2 7 -4
v 3 5 -4
v 3 6 -4
v 4 1 -4
v 4 8 -4
v -4 0 -5
v -4 9 -5
v -3 1 -5
v -3 8 -5
v 4 1 -5
v 4 8 -5
v 5 0 -5
v 5 9 -5
v -4 0 4
v 4 0 4
v 5 0 4
v -4 0 -4
v 4 0 -4
v -4 0 -5
v 5 0 -5
v -3 8 4
v 4 8 4
v -4 8 3
v -3 8 3
v 4 8 3
v 5 8 3
v -3 8 -3
v 4 8 -3
v -4 8 -4
v -3 8 -4
v 4 8 -4
v 5 8 -4
v -3 8 -5
v 4 8 -5
v -3 1 4
v 4 1 4
v -4 1 3
v -3 1 3
v 0 1 3
v 1 1 3
v 3 1 3
v 4 1 3
v 5 1 3
v -3 1 -0
v 4 1 -0
v -3 1 -1
v 4 1 -1
v -3 1 -3
v -4 1 -4
v -3 1 -4
v 0 1 -4
v 1 1 -4
v 4 1 -4
v 5 1 -4
v -3 1 -5
v 4 1 -5
v -4 9 4
v 5 9 4
v -4 9 -5
v 5 9 -5

# faces
f 4/1/1 2/1/1 1/1/1
f 5/2/1 3/2/1 2/2/1
f 5/1/1 2/1/1 4/1/1
f 6/1/1 4/1/1 1/1/1
f 7/1/1 4/1/1 6/1/1
f 8/2/1 3/2/1 5/2/1
f 9/2/1 7/2/1 6/2/1
f 9/2/1 8/2/1 7/2/1
f 10/2/1 3/2/1 8/2/1
f 10/2/1 8/2/1 9/2/1
f 16/1/1 12/1/1 11/1/1
f 16/3/1 13/3/1 12/3/1
f 17/1/1 14/1/1 13/1/1
f 17/3/1 13/3/1 16/3/1
f 18/1/1 16/1/1 11/1/1
f 18/1/1 17/1/1 16/1/1
f 19/1/1 14/1/1 17/1/1
f 19/1/1 17/1/1 18/1/1
f 20/1/1 18/1/1 11/1/1
f 21/3/1 19/3/1 18/3/1
f 21/1/1 18/1/1 20/1/1
f 22/1/1 14/1/1 19/1/1
f 22/3/1 19/3/1 21/3/1
f 23/1/1 20/1/1 11/1/1
f 24/3/1 21/3/1 20/3/1
f 24/1/1 20/1/1 23/1/1
f 25/1/1 22/1/1 21/1/1
f 25/3/1 21/3/1 24/3/1
f 26/1/1 14/1/1 22/1/1
f 26/1/1 22/1/1 25/1/1
f 27/2/1 15/2/1 14/2/1
f 27/1/1 14/1/1 26/1/1
f 28/1/1 23/1/1 11/1/1
f 28/3/1 24/3/1 23/3/1
f 29/1/1 26/1/1 25/1/1
f 29/3/1 24/3/1 28/3/1
f 29/1/1 25/1/1 24/1/1
f 30/3/1 27/3/1 26/3/1
f 30/1/1 26/1/1 29/1/1
f 31/2/1 15/2/1 27/2/1
f 31/3/1 27/3/1 30/3/1
f 32/3/1 30/3/1 29/3/1
f 32/1/1 29/1/1 28/1/1
f 33/1/1 31/1/1 30/1/1
f 33/3/1 30/3/1 32/3/1
f 34/1/1 28/1/1 11/1/1
f 34/1/1 32/1/1 28/1/1
f 34/1/1 33/1/1 32/1/1
f 35/1/1 31/1/1 33/1/1
f 35/1/1 33/1/1 34/1/1
f 35/2/1 15/2/1 31/2/1
f 36/2/1 15/2/1 35/2/1
f 41/2/1 38/2/1 37/2/1
f 42/2/1 41/2/1 37/2/1
f 43/2/1 41/2/1 42/2/1
f 44/2/1 40/2/1 39/2/1
f 45/2/1 40/2/1 44/2/1
f 46/1/2 47/1/2 50/1/2
f 50/1/2 47/1/2 51/1/2
f 48/2/2 49/2/2 52/2/2
f 52/2/2 49/2/2 53/2/2
f 54/2/2 55/2/2 58/2/2
f 55/3/2 56/3/2 58/3/2
f 56/2/2 57/2/2 59/2/2
f 58/3/2 56/3/2 59/3/2
f 54/2/2 58/2/2 60/2/2
f 58/2/2 59/2/2 60/2/2
f 59/2/2 57/2/2 61/2/2
f 60/2/2 59/2/2 61/2/2
f 54/2/2 60/2/2 62/2/2
f 60/3/2 61/3/2 62/3/2
f 61/2/2 57/2/2 63/2/2
f 62/3/2 61/3/2 63/3/2
f 63/2/2 57/2/2 64/2/2
f 54/2/2 62/2/2 65/2/2
f 62/2/2 63/2/2 65/2/2
f 65/2/2 63/2/2 66/2/2
f 63/3/2 64/3/2 67/3/2
f 66/2/2 63/2/2 67/2/2
f 64/2/2 57/2/2 68/2/2
f 67/3/2 64/3/2 68/3/2
f 68/2/2 57/2/2 69/2/2
f 65/3/2 66/3/2 70/3/2
f 54/2/2 65/2/2 70/2/2
f 66/2/2 67/2/2 71/2/2
f 70/3/2 66/3/2 71/3/2
f 67/2/2 68/2/2 71/2/2
f 68/3/2 69/3/2 72/3/2
f 71/2/2 68/2/2 72/2/2
f 69/2/2 57/2/2 73/2/2
f 72/3/2 69/3/2 73/3/2
f 54/2/2 70/2/2 74/2/2
f 70/2/2 71/2/2 74/2/2
f 71/3/2 72/3/2 75/3/2
f 74/2/2 71/2/2 75/2/2
f 72/2/2 73/2/2 76/2/2
f 75/3/2 72/3/2 76/3/2
f 73/2/2 57/2/2 77/2/2
f 76/2/2 73/2/2 77/2/2
f 75/1/2 76/1/2 78/1/2
f 74/1/2 75/1/2 78/1/2
f 76/1/2 77/1/2 78/1/2
f 77/2/2 57/2/2 79/2/2
f 78/1/2 77/1/2 79/1/2
f 79/2/2 57/2/2 80/2/2
f 81/2/2 82/2/2 83/2/2
f 83/2/2 82/2/2 84/2/2
f 81/2/2 83/2/2 85/2/2
f 84/2/2 82/2/2 86/2/2
f 81/2/2 85/2/2 87/2/2
f 85/2/2 86/2/2 87/2/2
f 86/2/2 82/2/2 88/2/2
f 87/2/2 86/2/2 88/2/2
f 92/1/3 90/1/3 89/1/3
f 93/2/3 91/2/3 90/2/3
f 93/1/3 90/1/3 92/1/3
f 94/1/3 92/1/3 89/1/3
f 95/1/3 92/1/3 94/1/3
f 96/2/3 91/2/3 93/2/3
f 97/2/3 95/2/3 94/2/3
f 97/2/3 96/2/3 95/2/3
f 98/2/3 91/2/3 96/2/3
f 98/2/3 96/2/3 97/2/3
f 101/1/3 100/1/3 99/1/3
f 102/1/3 100/1/3 101/1/3
f 103/1/3 101/1/3 99/1/3
f 103/3/3 102/3/3 101/3/3
f 104/1/3 100/1/3 102/1/3
f 104/3/3 102/3/3 103/3/3
f 105/1/3 100/1/3 104/1/3
f 106/1/3 103/1/3 99/1/3
f 106/1/3 104/1/3 103/1/3
f 107/1/3 104/1/3 106/1/3
f 108/1/3 104/1/3 107/1/3
f 109/1/3 104/1/3 108/1/3
f 110/3/3 107/3/3 106/3/3
f 111/1/3 108/1/3 107/1/3
f 111/3/3 107/3/3 110/3/3
f 112/3/3 109/3/3 108/3/3
f 112/1/3 108/1/3 111/1/3
f 113/1/3 104/1/3 109/1/3
f 113/3/3 109/3/3 112/3/3
f 114/1/3 104/1/3 113/1/3
f 115/1/3 112/1/3 111/1/3
f 115/1/3 111/1/3 110/1/3
f 115/3/3 114/3/3 113/3/3
f 115/1/3 113/1/3 112/1/3
f 116/1/3 104/1/3 114/1/3
f 116/3/3 114/3/3 115/3/3
f 117/3/3 105/3/3 104/3/3
f 117/1/3 104/1/3 116/1/3
f 118/1/3 100/1/3 105/1/3
f 118/3/3 105/3/3 117/3/3
f 119/1/3 116/1/3 115/1/3
f 119/1/3 115/1/3 110/1/3
f 120/3/3 117/3/3 116/3/3
f 120/1/3 116/1/3 119/1/3
f 121/1/3 118/1/3 117/1/3
f 121/3/3 117/3/3 120/3/3
f 122/1/3 100/1/3 118/1/3
f 122/1/3 118/1/3 121/1/3
f 123/2/3 121/2/3 120/2/3
f 123/2/3 120/2/3 119/2/3
f 123/2/3 122/2/3 121/2/3
f 124/1/3 100/1/3 122/1/3
f 124/2/3 122/2/3 123/2/3
f 125/1/3 100/1/3 124/1/3
f 128/2/3 127/2/3 126/2/3
f 129/2/3 127/2/3 128/2/3
f 132/2/3 131/2/3 130/2/3
f 133/2/3 131/2/3 132/2/3
f 134/1/4 135/1/4 136/1/4
f 136/1/4 135/1/4 137/1/4
f 138/2/4 139/2/4 141/2/4
f 139/2/4 140/2/4 141/2/4
f 141/2/4 140/2/4 142/2/4
f 143/2/4 144/2/4 145/2/4
f 145/2/4 144/2/4 146/2/4
f 143/2/4 145/2/4 147/2/4
f 145/3/4 146/3/4 148/3/4
f 147/2/4 145/2/4 148/2/4
f 146/2/4 144/2/4 149/2/4
f 148/3/4 146/3/4 149/3/4
f 149/2/4 144/2/4 150/2/4
f 143/2/4 147/2/4 151/2/4
f 151/2/4 147/2/4 152/2/4
f 152/2/4 147/2/4 153/2/4
f 147/3/4 148/3/4 154/3/4
f 153/2/4 147/2/4 154/2/4
f 148/2/4 149/2/4 155/2/4
f 154/3/4 148/3/4 155/3/4
f 151/3/4 152/3/4 156/3/4
f 152/2/4 153/2/4 157/2/4
f 156/3/4 152/3/4 157/3/4
f 153/3/4 154/3/4 158/3/4
f 157/2/4 153/2/4 158/2/4
f 154/2/4 155/2/4 159/2/4
f 158/3/4 154/3/4 159/3/4
f 156/2/4 157/2/4 160/2/4
f 159/2/4 155/2/4 160/2/4
f 158/2/4 159/2/4 160/2/4
f 157/2/4 158/2/4 160/2/4
f 155/2/4 149/2/4 160/2/4
f 149/3/4 150/3/4 161/3/4
f 160/2/4 149/2/4 161/2/4
f 150/2/4 144/2/4 162/2/4
f 161/3/4 150/3/4 162/3/4
f 160/3/4 161/3/4 163/3/4
f 156/2/4 160/2/4 163/2/4
f 161/2/4 162/2/4 164/2/4
f 163/3/4 161/3/4 164/3/4
f 156/2/4 163/2/4 165/2/4
f 163/2/4 164/2/4 165/2/4
f 162/2/4 144/2/4 166/2/4
f 165/2/4 164/2/4 166/2/4
f 164/2/4 162/2/4 166/2/4
f 167/2/4 168/2/4 169/2/4
f 169/2/4 168/2/4 170/2/4
f 167/2/4 169/2/4 171/2/4
f 170/2/4 168/2/4 172/2/4
f 167/2/4 171/2/4 173/2/4
f 171/2/4 172/2/4 173/2/4
f 172/2/4 168/2/4 174/2/4
f 173/2/4 172/2/4 174/2/4
f 178/1/5 176/1/5 175/1/5
f 179/2/5 177/2/5 176/2/5
f 179/1/5 176/1/5 178/1/5
f 180/2/5 179/2/5 178/2/5
f 181/2/5 177/2/5 179/2/5
f 181/2/5 179/2/5 180/2/5
f 185/2/5 183/2/5 182/2/5
f 186/2/5 183/2/5 185/2/5
f 188/2/5 185/2/5 184/2/5
f 189/2/5 187/2/5 186/2/5
f 190/2/5 188/2/5 184/2/5
f 191/2/5 188/2/5 190/2/5
f 192/2/5 187/2/5 189/2/5
f 193/2/5 187/2/5 192/2/5
f 194/2/5 192/2/5 191/2/5
f 195/2/5 192/2/5 194/2/5
f 196/1/6 197/1/6 199/1/6
f 199/1/6 197/1/6 200/1/6
f 200/1/6 197/1/6 201/1/6
f 201/1/6 197/1/6 202/1/6
f 202/1/6 197/1/6 203/1/6
f 198/1/6 199/1/6 205/1/6
f 203/2/6 204/2/6 206/2/6
f 198/1/6 205/1/6 207/1/6
f 206/2/6 204/2/6 208/2/6
f 198/1/6 207/1/6 209/1/6
f 198/1/6 209/1/6 210/1/6
f 210/1/6 209/1/6 211/1/6
f 208/2/6 204/2/6 214/2/6
f 214/2/6 204/2/6 215/2/6
f 212/2/6 213/2/6 216/2/6
f 213/2/6 214/2/6 216/2/6
f 211/2/6 212/2/6 216/2/6
f 216/2/6 214/2/6 217/2/6
f 218/2/6 219/2/6 220/2/6
f 220/2/6 219/2/6 221/2/6
